<svg width="30" height="28" viewBox="0 0 30 28" fill="none" xmlns="http://www.w3.org/2000/svg">
<path d="M15.0003 25.2L14.2932 25.9071C14.4807 26.0946 14.735 26.2 15.0003 26.2C15.2655 26.2 15.5198 26.0946 15.7074 25.9071L15.0003 25.2ZM3.86659 14.0663L3.15948 14.7734L3.15948 14.7734L3.86659 14.0663ZM13.1999 4.73298L12.4928 5.44009L13.1999 4.73298ZM15.0003 6.53332L14.2932 7.24043C14.6837 7.63095 15.3168 7.63095 15.7074 7.24043L15.0003 6.53332ZM16.8006 4.73298L16.0935 4.02588V4.02588L16.8006 4.73298ZM15.7074 24.4929L4.57369 13.3592L3.15948 14.7734L14.2932 25.9071L15.7074 24.4929ZM25.4268 13.3592L14.2932 24.4929L15.7074 25.9071L26.841 14.7734L25.4268 13.3592ZM12.4928 5.44009L14.2932 7.24043L15.7074 5.82621L13.907 4.02588L12.4928 5.44009ZM15.7074 7.24043L17.5077 5.44009L16.0935 4.02588L14.2932 5.82621L15.7074 7.24043ZM21.4673 1.79999C19.4517 1.79999 17.5187 2.60066 16.0935 4.02588L17.5077 5.44009C18.5578 4.38995 19.9821 3.79999 21.4673 3.79999V1.79999ZM27.0669 9.39965C27.0669 10.8848 26.477 12.3091 25.4268 13.3592L26.841 14.7734C28.2662 13.3482 29.0669 11.4152 29.0669 9.39965H27.0669ZM29.0669 9.39965C29.0669 5.20247 25.6644 1.79999 21.4673 1.79999V3.79999C24.5599 3.79999 27.0669 6.30704 27.0669 9.39965H29.0669ZM8.53326 3.79999C10.0184 3.79999 11.4427 4.38995 12.4928 5.44009L13.907 4.02588C12.4818 2.60066 10.5488 1.79999 8.53326 1.79999V3.79999ZM2.93359 9.39965C2.93359 6.30704 5.44065 3.79999 8.53326 3.79999V1.79999C4.33608 1.79999 0.933594 5.20247 0.933594 9.39965H2.93359ZM4.57369 13.3592C3.52355 12.3091 2.93359 10.8848 2.93359 9.39965H0.933594C0.933594 11.4152 1.73427 13.3482 3.15948 14.7734L4.57369 13.3592Z" fill="#6C6868"/>
</svg>
